<svg width="100" height="120" viewBox="0 0 100 120" fill="none" xmlns="http://www.w3.org/2000/svg">
<rect x="1" y="1" width="13.2" height="118" stroke="#676766" stroke-width="2"/>
<rect x="22.2" y="1" width="13.2" height="118" stroke="#676766" stroke-width="2"/>
<rect x="43.4" y="1" width="13.2" height="118" stroke="#676766" stroke-width="2"/>
<rect x="64.6" y="1" width="13.2" height="118" stroke="#676766" stroke-width="2"/>
<rect x="85.8" y="1" width="13.2" height="118" stroke="#676766" stroke-width="2"/>

<rect x="4" y="4" width="7.2" height="32" fill="#676766" fill-opacity="0.5"/>
<rect x="4" y="42" width="7.2" height="32" fill="#676766" fill-opacity="0.5"/>
<rect x="4" y="80" width="7.2" height="36" fill="#676766" fill-opacity="0.5"/>

<rect x="25.2" y="4" width="7.2" height="11" fill="#676766" fill-opacity="0.5"/>
<rect x="25.2" y="21" width="7.2" height="14" fill="#676766" fill-opacity="0.5"/>
<rect x="25.2" y="41" width="7.2" height="13.1321" fill="#676766" fill-opacity="0.5"/>

<rect x="46.4" y="4" width="7.2" height="23.0943" fill="#676766" fill-opacity="0.5"/>

<rect x="67.6" y="4" width="7.2" height="20" fill="#676766" fill-opacity="0.5"/>
<rect x="67.6" y="30" width="7.2" height="30" fill="#676766" fill-opacity="0.5"/>

<rect x="88.8" y="4" width="7.2" height="35" fill="#676766" fill-opacity="0.5"/>
<rect x="88.8" y="45" width="7.2" height="30" fill="#676766" fill-opacity="0.5"/>
</svg>
